# xmcd
# 
# Track frame offsets:
#     182
#     26880
#     77852
#     107072
#     167827
#     195412
#     223170
# 
# Disc length: 3270
# 
# Revision: 0
# Processed by: cddbd v1.5.2PL0 Copyright (c) Steve Scherf et al.
# Submitted via: BonkEnc v1.0
# 
DISCID=5e0cc407
DTITLE=Jethro Tull - Blues From Chicago
DYEAR=1992
DGENRE=Rock
TTITLE0=My Sunday Feeling
TTITLE1=My God!
TTITLE2=To Cry You A Song
TTITLE3=With You There To Help Me
TTITLE4=Sossity, You're A Woman
TTITLE5=Nothing Is Easy
TTITLE6=For A Thousand Mothers
EXTD=Da "il dizionario del ROCK"\nARMANDO CURCIO EDITORE
EXTT0=
EXTT1=
EXTT2=
EXTT3=
EXTT4=
EXTT5=
EXTT6=
PLAYORDER=
